<?xml version="1.0" encoding="utf-8"?>
<svg version="1.1" viewBox="0 0 816 888" width="816" height="888" style="stroke:none;stroke-linecap:butt;stroke-linejoin:miter;stroke-width:1;stroke-dasharray:none;fill:#000000;fill-opacity:1;fill-rule:evenodd" font-family="Arial" font-size="15" xmlns:xlink="http://www.w3.org/1999/xlink" xmlns="http://www.w3.org/2000/svg">
  <g id="Rounded rectangle" transform="matrix(1,0,0,1,312,360)">
    <rect x="0" y="0" width="172.8995" height="330.4314" rx="10" style="stroke-linecap:round;stroke-linejoin:round;fill:#4D4D4D;" />
  </g>
  <g id="Rounded rectangle1" transform="matrix(1,0,0,1,316.8353,366.4202)">
    <rect x="0" y="0" width="162.8878" height="305.4972" rx="10" style="stroke-linecap:round;stroke-linejoin:round;fill:#CCCCCC;" />
  </g>
  <g id="Rounded rectangle2" transform="matrix(1,0,0,1,324.4304,378.0745)">
    <rect x="0" y="0" width="31.7657" height="33.9777" rx="10" style="stroke-linecap:round;stroke-linejoin:round;fill:#E7E7E7;" />
  </g>
  <g id="Rounded rectangle3" transform="matrix(1,0,0,1,362.3753,378.0745)">
    <rect x="0" y="0" width="31.7657" height="33.9777" rx="10" style="stroke-linecap:round;stroke-linejoin:round;fill:#E7E7E7;" />
  </g>
  <g id="Rounded rectangle4" transform="matrix(1,0,0,1,400.5311,378.0745)">
    <rect x="0" y="0" width="31.7657" height="33.9777" rx="10" style="stroke-linecap:round;stroke-linejoin:round;fill:#E7E7E7;" />
  </g>
  <g id="Rounded rectangle5" transform="matrix(1,0,0,1,440.4713,378.0745)">
    <rect x="0" y="0" width="31.7657" height="33.9777" rx="10" style="stroke-linecap:round;stroke-linejoin:round;fill:#E7E7E7;" />
  </g>
  <g id="Rounded rectangle6" transform="matrix(1,0,0,1,324.4304,424.8819)">
    <rect x="0" y="0" width="31.7657" height="33.9777" rx="10" style="stroke-linecap:round;stroke-linejoin:round;fill:#E7E7E7;" />
  </g>
  <g id="Rounded rectangle7" transform="matrix(1,0,0,1,362.3753,424.8819)">
    <rect x="0" y="0" width="31.7657" height="33.9777" rx="10" style="stroke-linecap:round;stroke-linejoin:round;fill:#E7E7E7;" />
  </g>
  <g id="Rounded rectangle8" transform="matrix(1,0,0,1,400.5311,424.8819)">
    <rect x="0" y="0" width="31.7657" height="33.9777" rx="10" style="stroke-linecap:round;stroke-linejoin:round;fill:#E7E7E7;" />
  </g>
  <g id="Rounded rectangle9" transform="matrix(1,0,0,1,440.4713,424.8819)">
    <rect x="0" y="0" width="31.7657" height="33.9777" rx="10" style="stroke-linecap:round;stroke-linejoin:round;fill:#E7E7E7;" />
  </g>
  <g id="Rounded rectangle10" transform="matrix(1,0,0,1,324.4304,471.6892)">
    <rect x="0" y="0" width="31.7657" height="33.9777" rx="10" style="stroke-linecap:round;stroke-linejoin:round;fill:#E7E7E7;" />
  </g>
  <g id="Rounded rectangle11" transform="matrix(1,0,0,1,362.3753,471.6892)">
    <rect x="0" y="0" width="31.7657" height="33.9777" rx="10" style="stroke-linecap:round;stroke-linejoin:round;fill:#E7E7E7;" />
  </g>
  <g id="Rounded rectangle12" transform="matrix(1,0,0,1,400.5311,471.6892)">
    <rect x="0" y="0" width="31.7657" height="33.9777" rx="10" style="stroke-linecap:round;stroke-linejoin:round;fill:#E7E7E7;" />
  </g>
  <g id="Rounded rectangle13" transform="matrix(1,0,0,1,440.4713,471.6892)">
    <rect x="0" y="0" width="31.7657" height="33.9777" rx="10" style="stroke-linecap:round;stroke-linejoin:round;fill:#E7E7E7;" />
  </g>
  <g id="Rounded rectangle14" transform="matrix(1,0,0,1,324.4304,515.2612)">
    <rect x="0" y="0" width="31.7657" height="33.9777" rx="10" style="stroke-linecap:round;stroke-linejoin:round;fill:#E7E7E7;" />
  </g>
  <g id="Rounded rectangle15" transform="matrix(1,0,0,1,362.3753,515.2612)">
    <rect x="0" y="0" width="31.7657" height="33.9777" rx="10" style="stroke-linecap:round;stroke-linejoin:round;fill:#E7E7E7;" />
  </g>
  <g id="Rounded rectangle16" transform="matrix(1,0,0,1,400.5311,515.2612)">
    <rect x="0" y="0" width="31.7657" height="33.9777" rx="10" style="stroke-linecap:round;stroke-linejoin:round;fill:#E7E7E7;" />
  </g>
  <g id="Rounded rectangle17" transform="matrix(1,0,0,1,440.4713,515.2612)">
    <rect x="0" y="0" width="31.7657" height="33.9777" rx="10" style="stroke-linecap:round;stroke-linejoin:round;fill:#E7E7E7;" />
  </g>
  <g id="Rounded rectangle18" transform="matrix(1,0,0,1,324.4304,556.071)">
    <rect x="0" y="0" width="31.7657" height="33.9777" rx="10" style="stroke-linecap:round;stroke-linejoin:round;fill:#E7E7E7;" />
  </g>
  <g id="Rounded rectangle19" transform="matrix(1,0,0,1,362.3753,556.071)">
    <rect x="0" y="0" width="31.7657" height="33.9777" rx="10" style="stroke-linecap:round;stroke-linejoin:round;fill:#E7E7E7;" />
  </g>
  <g id="Rounded rectangle20" transform="matrix(1,0,0,1,400.5311,556.071)">
    <rect x="0" y="0" width="31.7657" height="33.9777" rx="10" style="stroke-linecap:round;stroke-linejoin:round;fill:#00AAFF;" />
  </g>
  <g id="Rounded rectangle21" transform="matrix(1,0,0,1,440.4713,556.071)">
    <rect x="0" y="0" width="31.7657" height="33.9777" rx="10" style="stroke-linecap:round;stroke-linejoin:round;fill:#E7E7E7;" />
  </g>
  <g id="Rounded rectangle22" transform="matrix(1,0,0,1,324.4304,627.3788)">
    <rect x="0" y="0" width="31.7657" height="33.9777" rx="10" style="stroke-linecap:round;stroke-linejoin:round;fill:#E7E7E7;" />
  </g>
  <g id="Rounded rectangle23" transform="matrix(1,0,0,1,362.3753,627.3788)">
    <rect x="0" y="0" width="31.7657" height="33.9777" rx="10" style="stroke-linecap:round;stroke-linejoin:round;fill:#E7E7E7;" />
  </g>
  <g id="Rounded rectangle24" transform="matrix(1,0,0,1,400.5311,627.3788)">
    <rect x="0" y="0" width="31.7657" height="33.9777" rx="10" style="stroke-linecap:round;stroke-linejoin:round;fill:#E7E7E7;" />
  </g>
  <g id="Rounded rectangle25" transform="matrix(1,0,0,1,440.4713,627.3788)">
    <rect x="0" y="0" width="31.7657" height="33.9777" rx="10" style="stroke-linecap:round;stroke-linejoin:round;fill:#E7E7E7;" />
  </g>
  <g id="Circle" transform="matrix(1,0,0,1,459.9749,338.1042)">
    <ellipse cx="24.4095" cy="24.4095" rx="24.4095" ry="24.4095" style="stroke-linecap:round;stroke-linejoin:round;fill:#FF0000;" />
    <text x="19.6399" y="46.7858" style="fill:#FFFFFF;" font-size="37.3333">!</text>
  </g>
  <g id="Quarter ellipse" transform="matrix(0.7047,0.7095,-0.7095,0.7047,563.2387,462.6006)">
    <path d="M0,0C43.8867,0 80,36.1133 80,80L0,80z" style="stroke-linecap:round;stroke-linejoin:round;fill:#B2B2B2;" />
  </g>
  <g id="Quarter ellipse1" transform="matrix(0.7069,0.7074,-0.7074,0.7069,559.84,473.4918)">
    <path d="M0,0C35.2758,0 64.3034,28.7364 64.3034,63.6583L0,63.6583z" style="stroke-linecap:round;stroke-linejoin:round;fill:#CCCCCC;" />
  </g>
  <g id="Quarter ellipse2" transform="matrix(0.7087,0.7055,-0.7055,0.7087,558.4897,485.9189)">
    <path d="M0,0C25.4602,0 46.4108,20.365 46.4108,45.1137L0,45.1137z" style="stroke-linecap:round;stroke-linejoin:round;fill:#E5E5E5;" />
  </g>
  <g id="Quarter ellipse3" transform="matrix(0.7087,0.7055,-0.7055,0.7087,558.4897,485.9189)">
    <path d="M0,0C25.4602,0 46.4108,20.365 46.4108,45.1137L0,45.1137z" style="stroke-linecap:round;stroke-linejoin:round;fill:#E5E5E5;" />
  </g>
  <g id="Quarter ellipse4" transform="matrix(-0.7079,-0.7063,0.7063,-0.7079,233.9206,575.7376)">
    <path d="M0,0C43.8867,0 80,36.1133 80,80L0,80z" style="stroke-linecap:round;stroke-linejoin:round;fill:#B2B2B2;" />
  </g>
  <g id="Quarter ellipse5" transform="matrix(-0.7066,-0.7076,0.7076,-0.7066,237.0214,563.9746)">
    <path d="M0,0C35.2758,0 64.3034,28.7364 64.3034,63.6583L0,63.6583z" style="stroke-linecap:round;stroke-linejoin:round;fill:#CCCCCC;" />
  </g>
  <g id="Quarter ellipse6" transform="matrix(-0.7115,-0.7026,0.7026,-0.7115,240.5082,551.5241)">
    <path d="M0,0C25.4602,0 46.4108,20.365 46.4108,45.1137L0,45.1137z" style="stroke-linecap:round;stroke-linejoin:round;fill:#E5E5E5;" />
  </g>
</svg>